<?xml version="1.0" encoding="UTF-8" standalone="no"?>
<!-- Created with Inkscape (http://www.inkscape.org/) -->

<svg
   version="1.1"
   id="svg2"
   width="666.66669"
   height="666.66669"
   viewBox="0 0 666.66669 666.66669"
   sodipodi:docname="7061501.ai"
   xmlns:inkscape="http://www.inkscape.org/namespaces/inkscape"
   xmlns:sodipodi="http://sodipodi.sourceforge.net/DTD/sodipodi-0.dtd"
   xmlns="http://www.w3.org/2000/svg"
   xmlns:svg="http://www.w3.org/2000/svg">
  <defs
     id="defs6">
    <clipPath
       clipPathUnits="userSpaceOnUse"
       id="clipPath16">
      <path
         d="M 0,500 H 500 V 0 H 0 Z"
         id="path14" />
    </clipPath>
    <clipPath
       clipPathUnits="userSpaceOnUse"
       id="clipPath28">
      <path
         d="M 12.3394,467.772 H 486.119 V 25.2938 H 12.3394 Z"
         id="path26" />
    </clipPath>
    <clipPath
       clipPathUnits="userSpaceOnUse"
       id="clipPath44">
      <path
         d="M 0,500 H 500 V 0 H 0 Z"
         id="path42" />
    </clipPath>
    <clipPath
       clipPathUnits="userSpaceOnUse"
       id="clipPath64">
      <path
         d="M 0,500 H 500 V 0 H 0 Z"
         id="path62" />
    </clipPath>
    <clipPath
       clipPathUnits="userSpaceOnUse"
       id="clipPath108">
      <path
         d="M 0,500 H 500 V 0 H 0 Z"
         id="path106" />
    </clipPath>
    <clipPath
       clipPathUnits="userSpaceOnUse"
       id="clipPath172">
      <path
         d="M 0,500 H 500 V 0 H 0 Z"
         id="path170" />
    </clipPath>
    <clipPath
       clipPathUnits="userSpaceOnUse"
       id="clipPath320">
      <path
         d="M 0,500 H 500 V 0 H 0 Z"
         id="path318" />
    </clipPath>
    <clipPath
       clipPathUnits="userSpaceOnUse"
       id="clipPath336">
      <path
         d="M 0,500 H 500 V 0 H 0 Z"
         id="path334" />
    </clipPath>
  </defs>
  <sodipodi:namedview
     id="namedview4"
     pagecolor="#ffffff"
     bordercolor="#000000"
     borderopacity="0.25"
     inkscape:showpageshadow="2"
     inkscape:pageopacity="0.0"
     inkscape:pagecheckerboard="0"
     inkscape:deskcolor="#d1d1d1" />
  <g
     id="g8"
     inkscape:groupmode="layer"
     inkscape:label="7061501"
     transform="matrix(1.3333333,0,0,-1.3333333,0,666.66667)">
    <g
       id="g10">
      <g
         id="g12"
         clip-path="url(#clipPath16)">
        <g
           id="g18"
           transform="translate(452.2812,381.2368)">
          <path
             d="m 0,0 c -1.658,2.762 -3.384,5.473 -5.186,8.122 -23.997,35.26 -63.946,59.4 -102.772,70.332 -17.009,4.797 -34.472,7.306 -51.904,7.948 -114.345,4.154 -156.35,-90.124 -193.191,-114.432 -36.841,-24.308 -93.374,-65.829 -86.28,-153.05 5.382,-66.316 43.108,-129.725 112.009,-158.581 7.589,-3.187 15.563,-5.955 23.912,-8.251 15.531,-4.272 32.364,-6.955 50.499,-7.761 52.093,-2.322 94.391,10.236 135.764,41.856 9.617,7.351 19.183,15.641 31.664,16.55 9.072,0.66 17.672,-2.6 8.19,-11.366 -11.145,-10.305 1.715,-30.573 30.006,-16.492 47.251,23.518 66.688,74.257 75.846,125.851 C 39.797,-135.946 34.349,-57.188 0,0"
             style="fill:#5ae4a7;fill-opacity:1;fill-rule:nonzero;stroke:none"
             id="path20" />
        </g>
        <g
           id="g22">
          <g
             id="g24" />
          <g
             id="g36">
            <g
               clip-path="url(#clipPath28)"
               opacity="0.699997"
               id="g34">
              <g
                 transform="translate(452.2812,381.2368)"
                 id="g32">
                <path
                   d="m 0,0 c -1.658,2.762 -3.384,5.473 -5.186,8.122 -23.997,35.26 -63.946,59.4 -102.772,70.332 -17.009,4.797 -34.472,7.306 -51.904,7.948 -114.345,4.154 -156.35,-90.124 -193.191,-114.432 -36.841,-24.308 -93.374,-65.829 -86.28,-153.05 5.382,-66.316 43.108,-129.725 112.009,-158.581 7.589,-3.187 15.563,-5.955 23.912,-8.251 15.531,-4.272 32.364,-6.955 50.499,-7.761 52.093,-2.322 94.391,10.236 135.764,41.856 9.617,7.351 19.183,15.641 31.664,16.55 9.072,0.66 17.672,-2.6 8.19,-11.366 -11.145,-10.305 1.715,-30.573 30.006,-16.492 47.251,23.518 66.688,74.257 75.846,125.851 C 39.797,-135.946 34.349,-57.188 0,0"
                   style="fill:#ffffff;fill-opacity:1;fill-rule:nonzero;stroke:none"
                   id="path30" />
              </g>
            </g>
          </g>
        </g>
      </g>
    </g>
    <g
       id="g38">
      <g
         id="g40"
         clip-path="url(#clipPath44)">
        <g
           id="g46"
           transform="translate(432.7656,363.3638)">
          <path
             d="M 0,0 C 0,0 -5.248,21.867 -35.861,26.241 -66.476,30.614 -70.849,4.374 -76.972,0.875 c -6.123,-3.499 -9.621,6.123 -19.243,5.248 -9.621,-0.874 -14.869,-8.747 -19.243,-12.246 -4.373,-3.498 -12.245,6.998 -18.368,5.248 -6.123,-1.749 -11.371,-10.496 -11.371,-10.496 H 32.364 c 0,0 -6.123,9.622 -14.87,13.121 C 8.747,5.249 5.249,0 0,0 Z"
             style="fill:none;stroke:#1a2e35;stroke-width:1;stroke-linecap:round;stroke-linejoin:round;stroke-miterlimit:10;stroke-dasharray:none;stroke-opacity:1"
             id="path48" />
        </g>
        <g
           id="g50"
           transform="translate(137.9863,297.6997)">
          <path
             d="M 0,0 C 0,0 -3.762,15.674 -25.706,18.81 -47.65,21.944 -50.786,3.135 -55.174,0.627 c -4.389,-2.508 -6.897,4.389 -13.794,3.762 -6.897,-0.627 -10.658,-6.27 -13.793,-8.778 -3.135,-2.508 -8.778,5.016 -13.167,3.762 -4.389,-1.254 -8.151,-7.524 -8.151,-7.524 H 23.198 c 0,0 -4.388,6.897 -10.658,9.405 C 6.27,3.762 3.762,0 0,0 Z"
             style="fill:none;stroke:#1a2e35;stroke-width:1;stroke-linecap:round;stroke-linejoin:round;stroke-miterlimit:10;stroke-dasharray:none;stroke-opacity:1"
             id="path52" />
        </g>
        <g
           id="g54"
           transform="translate(195.2139,430.1514)">
          <path
             d="M 0,0 C 0,0 -2.384,9.932 -16.289,11.918 -30.193,13.905 -32.18,1.987 -34.961,0.397 c -2.781,-1.589 -4.37,2.781 -8.74,2.384 -4.37,-0.397 -6.754,-3.973 -8.74,-5.562 -1.986,-1.589 -5.562,3.178 -8.343,2.384 -2.781,-0.795 -5.165,-4.768 -5.165,-4.768 h 80.648 c 0,0 -2.781,4.371 -6.754,5.96 C 3.973,2.384 2.383,0 0,0 Z"
             style="fill:none;stroke:#1a2e35;stroke-width:1;stroke-linecap:round;stroke-linejoin:round;stroke-miterlimit:10;stroke-dasharray:none;stroke-opacity:1"
             id="path56" />
        </g>
      </g>
    </g>
    <g
       id="g58">
      <g
         id="g60"
         clip-path="url(#clipPath64)">
        <g
           id="g66"
           transform="translate(332.4307,432.6611)">
          <path
             d="m 0,0 c 0,-12.694 -10.29,-22.985 -22.984,-22.985 -12.695,0 -22.986,10.291 -22.986,22.985 0,12.694 10.291,22.985 22.986,22.985 C -10.29,22.985 0,12.694 0,0 Z"
             style="fill:none;stroke:#1a2e35;stroke-width:1;stroke-linecap:round;stroke-linejoin:round;stroke-miterlimit:10;stroke-dasharray:none;stroke-opacity:1"
             id="path68" />
        </g>
        <g
           id="g70"
           transform="translate(309.4463,471.2295)">
          <path
             d="M 0,0 V -9.35"
             style="fill:none;stroke:#1a2e35;stroke-width:1;stroke-linecap:round;stroke-linejoin:round;stroke-miterlimit:10;stroke-dasharray:none;stroke-opacity:1"
             id="path72" />
        </g>
        <g
           id="g74"
           transform="translate(309.4463,401.8848)">
          <path
             d="M 0,0 V -9.35"
             style="fill:none;stroke:#1a2e35;stroke-width:1;stroke-linecap:round;stroke-linejoin:round;stroke-miterlimit:10;stroke-dasharray:none;stroke-opacity:1"
             id="path76" />
        </g>
        <g
           id="g78"
           transform="translate(337.2686,459.7046)">
          <path
             d="M 0,0 -6.611,-6.611"
             style="fill:none;stroke:#1a2e35;stroke-width:1;stroke-linecap:round;stroke-linejoin:round;stroke-miterlimit:10;stroke-dasharray:none;stroke-opacity:1"
             id="path80" />
        </g>
        <g
           id="g82"
           transform="translate(288.2344,410.6709)">
          <path
             d="M 0,0 -6.611,-6.611"
             style="fill:none;stroke:#1a2e35;stroke-width:1;stroke-linecap:round;stroke-linejoin:round;stroke-miterlimit:10;stroke-dasharray:none;stroke-opacity:1"
             id="path84" />
        </g>
        <g
           id="g86"
           transform="translate(348.793,431.8823)">
          <path
             d="M 0,0 H -9.35"
             style="fill:none;stroke:#1a2e35;stroke-width:1;stroke-linecap:round;stroke-linejoin:round;stroke-miterlimit:10;stroke-dasharray:none;stroke-opacity:1"
             id="path88" />
        </g>
        <g
           id="g90"
           transform="translate(279.4492,431.8823)">
          <path
             d="M 0,0 H -9.351"
             style="fill:none;stroke:#1a2e35;stroke-width:1;stroke-linecap:round;stroke-linejoin:round;stroke-miterlimit:10;stroke-dasharray:none;stroke-opacity:1"
             id="path92" />
        </g>
        <g
           id="g94"
           transform="translate(337.2686,404.0596)">
          <path
             d="M 0,0 -6.611,6.611"
             style="fill:none;stroke:#1a2e35;stroke-width:1;stroke-linecap:round;stroke-linejoin:round;stroke-miterlimit:10;stroke-dasharray:none;stroke-opacity:1"
             id="path96" />
        </g>
        <g
           id="g98"
           transform="translate(288.2344,453.0933)">
          <path
             d="M 0,0 -6.611,6.611"
             style="fill:none;stroke:#1a2e35;stroke-width:1;stroke-linecap:round;stroke-linejoin:round;stroke-miterlimit:10;stroke-dasharray:none;stroke-opacity:1"
             id="path100" />
        </g>
      </g>
    </g>
    <g
       id="g102">
      <g
         id="g104"
         clip-path="url(#clipPath108)">
        <g
           id="g110"
           transform="translate(364.8672,304.7798)">
          <path
             d="M 0,0 C 0,0 4.616,1.154 6.001,0.693 7.386,0.231 5.083,-1.406 5.083,-1.406 c 0,0 1.149,-0.671 1.842,-2.287 0.692,-1.616 -2.301,-0.92 -2.301,-0.92 0,0 0.915,-1.158 -0.008,-2.081 C 3.693,-7.617 -0.462,-3 -0.462,-3 c 0,0 -3.001,-1.847 -5.77,-1.616 -2.771,0.231 -4.386,0.923 -6.233,3.693 -1.847,2.77 -3.231,4.155 -3.231,4.155 l -1.847,0.692 2.77,1.616 c 0,0 2.308,2.078 4.617,1.847 2.307,-0.231 3.231,-0.924 3.231,-0.924 0,0 1.385,3.694 3.462,5.079 2.077,1.385 8.541,3.231 10.618,4.385 2.077,1.155 1.616,-0.692 0.923,-1.846 C 7.386,12.927 5.309,12.003 4.386,11.542 3.462,11.08 9.232,10.849 8.31,9.695 7.386,8.541 3.924,8.079 3.924,8.079 c 0,0 3.231,-1.154 2.539,-2.077 C 5.771,5.079 3,5.079 3,5.079 3,5.079 3.924,2.77 2.539,2.77 H 1.154 C 1.154,2.77 1.847,-0.461 0,0"
             style="fill:#5ae4a7;fill-opacity:1;fill-rule:nonzero;stroke:none"
             id="path112" />
        </g>
        <g
           id="g114"
           transform="translate(364.8672,304.7798)">
          <path
             d="M 0,0 C 0,0 4.616,1.154 6.001,0.693 7.386,0.231 5.083,-1.406 5.083,-1.406 c 0,0 1.149,-0.671 1.842,-2.287 0.692,-1.616 -2.301,-0.92 -2.301,-0.92 0,0 0.915,-1.158 -0.008,-2.081 C 3.693,-7.617 -0.462,-3 -0.462,-3 c 0,0 -3.001,-1.847 -5.77,-1.616 -2.771,0.231 -4.386,0.923 -6.233,3.693 -1.847,2.77 -3.231,4.155 -3.231,4.155 l -1.847,0.692 2.77,1.616 c 0,0 2.308,2.078 4.617,1.847 2.307,-0.231 3.231,-0.924 3.231,-0.924 0,0 1.385,3.694 3.462,5.079 2.077,1.385 8.541,3.231 10.618,4.385 2.077,1.155 1.616,-0.692 0.923,-1.846 C 7.386,12.927 5.309,12.003 4.386,11.542 3.462,11.08 9.232,10.849 8.31,9.695 7.386,8.541 3.924,8.079 3.924,8.079 c 0,0 3.231,-1.154 2.539,-2.077 C 5.771,5.079 3,5.079 3,5.079 3,5.079 3.924,2.77 2.539,2.77 H 1.154 C 1.154,2.77 1.847,-0.461 0,0 Z"
             style="fill:none;stroke:#1a2e35;stroke-width:1;stroke-linecap:round;stroke-linejoin:round;stroke-miterlimit:10;stroke-dasharray:none;stroke-opacity:1"
             id="path116" />
        </g>
        <g
           id="g118"
           transform="translate(357.9424,311.2432)">
          <path
             d="M 0,0 C 0,0 -1.847,3.693 -0.924,6.001 0,8.31 8.54,14.311 8.31,12.003 8.079,9.695 5.771,8.31 5.771,8.31 c 0,0 3.461,1.154 3.461,0.231 V 7.617 c 0,0 -3.923,-0.923 -5.77,-2.539 C 1.615,3.462 0,0 0,0"
             style="fill:#1a2e35;fill-opacity:1;fill-rule:nonzero;stroke:none"
             id="path120" />
        </g>
        <g
           id="g122"
           transform="translate(357.9424,311.2432)">
          <path
             d="M 0,0 C 0,0 -1.847,3.693 -0.924,6.001 0,8.31 8.54,14.311 8.31,12.003 8.079,9.695 5.771,8.31 5.771,8.31 c 0,0 3.461,1.154 3.461,0.231 V 7.617 c 0,0 -3.923,-0.923 -5.77,-2.539 C 1.615,3.462 0,0 0,0 Z"
             style="fill:none;stroke:#1a2e35;stroke-width:1;stroke-linecap:round;stroke-linejoin:round;stroke-miterlimit:10;stroke-dasharray:none;stroke-opacity:1"
             id="path124" />
        </g>
        <g
           id="g126"
           transform="translate(353.2266,309.4448)">
          <path
             d="m 0,0 c 0,-0.379 -0.308,-0.687 -0.687,-0.687 -0.379,0 -0.687,0.308 -0.687,0.687 0,0.38 0.308,0.687 0.687,0.687 C -0.308,0.687 0,0.38 0,0"
             style="fill:#1a2e35;fill-opacity:1;fill-rule:nonzero;stroke:none"
             id="path128" />
        </g>
        <g
           id="g130"
           transform="translate(361.8105,302.3901)">
          <path
             d="m 0,0 c -0.415,-1.4 -2.616,-1.981 -4.915,-1.298 -2.3,0.682 -3.827,2.37 -3.411,3.77 0.415,1.399 2.616,1.981 4.915,1.298 C -1.111,3.087 0.416,1.4 0,0"
             style="fill:#ffffff;fill-opacity:1;fill-rule:nonzero;stroke:none"
             id="path132" />
        </g>
        <g
           id="g134"
           transform="translate(361.8105,302.3901)">
          <path
             d="m 0,0 c -0.415,-1.4 -2.616,-1.981 -4.915,-1.298 -2.3,0.682 -3.827,2.37 -3.411,3.77 0.415,1.399 2.616,1.981 4.915,1.298 C -1.111,3.087 0.416,1.4 0,0 Z"
             style="fill:none;stroke:#1a2e35;stroke-width:0.5;stroke-linecap:round;stroke-linejoin:round;stroke-miterlimit:10;stroke-dasharray:none;stroke-opacity:1"
             id="path136" />
        </g>
        <g
           id="g138"
           transform="translate(135.272,363.9419)">
          <path
             d="m 0,0 c 0,0 -4.616,1.154 -6.001,0.692 -1.385,-0.461 0.918,-2.098 0.918,-2.098 0,0 -1.149,-0.672 -1.842,-2.287 -0.692,-1.616 2.3,-0.92 2.3,-0.92 0,0 -0.915,-1.158 0.009,-2.081 C -3.693,-7.617 0.462,-3 0.462,-3 c 0,0 3,-1.847 5.77,-1.617 2.77,0.231 4.386,0.924 6.233,3.694 1.847,2.77 3.231,4.154 3.231,4.154 l 1.847,0.693 -2.77,1.616 c 0,0 -2.308,2.077 -4.616,1.847 C 7.848,7.156 6.925,6.463 6.925,6.463 c 0,0 -1.385,3.693 -3.463,5.079 -2.077,1.384 -8.54,3.231 -10.617,4.385 -2.078,1.154 -1.616,-0.693 -0.924,-1.846 0.693,-1.155 2.77,-2.078 3.694,-2.539 0.923,-0.462 -4.848,-0.693 -3.925,-1.847 0.924,-1.154 4.386,-1.616 4.386,-1.616 0,0 -3.231,-1.154 -2.539,-2.078 C -5.771,5.078 -3,5.078 -3,5.078 c 0,0 -0.924,-2.308 0.461,-2.308 h 1.385 c 0,0 -0.692,-3.232 1.154,-2.77"
             style="fill:#5ae4a7;fill-opacity:1;fill-rule:nonzero;stroke:none"
             id="path140" />
        </g>
        <g
           id="g142"
           transform="translate(135.272,363.9419)">
          <path
             d="m 0,0 c 0,0 -4.616,1.154 -6.001,0.692 -1.385,-0.461 0.918,-2.098 0.918,-2.098 0,0 -1.149,-0.672 -1.842,-2.287 -0.692,-1.616 2.3,-0.92 2.3,-0.92 0,0 -0.915,-1.158 0.009,-2.081 C -3.693,-7.617 0.462,-3 0.462,-3 c 0,0 3,-1.847 5.77,-1.617 2.77,0.231 4.386,0.924 6.233,3.694 1.847,2.77 3.231,4.154 3.231,4.154 l 1.847,0.693 -2.77,1.616 c 0,0 -2.308,2.077 -4.616,1.847 C 7.848,7.156 6.925,6.463 6.925,6.463 c 0,0 -1.385,3.693 -3.463,5.079 -2.077,1.384 -8.54,3.231 -10.617,4.385 -2.078,1.154 -1.616,-0.693 -0.924,-1.846 0.693,-1.155 2.77,-2.078 3.694,-2.539 0.923,-0.462 -4.848,-0.693 -3.925,-1.847 0.924,-1.154 4.386,-1.616 4.386,-1.616 0,0 -3.231,-1.154 -2.539,-2.078 C -5.771,5.078 -3,5.078 -3,5.078 c 0,0 -0.924,-2.308 0.461,-2.308 h 1.385 c 0,0 -0.692,-3.232 1.154,-2.77 z"
             style="fill:none;stroke:#1a2e35;stroke-width:1;stroke-linecap:round;stroke-linejoin:round;stroke-miterlimit:10;stroke-dasharray:none;stroke-opacity:1"
             id="path144" />
        </g>
        <g
           id="g146"
           transform="translate(142.1968,370.4053)">
          <path
             d="M 0,0 C 0,0 1.847,3.693 0.923,6.001 0,8.31 -8.541,14.311 -8.31,12.003 -8.079,9.694 -5.771,8.31 -5.771,8.31 c 0,0 -3.462,1.154 -3.462,0.231 V 7.617 c 0,0 3.924,-0.923 5.771,-2.539 C -1.616,3.462 0,0 0,0"
             style="fill:#1a2e35;fill-opacity:1;fill-rule:nonzero;stroke:none"
             id="path148" />
        </g>
        <g
           id="g150"
           transform="translate(142.1968,370.4053)">
          <path
             d="M 0,0 C 0,0 1.847,3.693 0.923,6.001 0,8.31 -8.541,14.311 -8.31,12.003 -8.079,9.694 -5.771,8.31 -5.771,8.31 c 0,0 -3.462,1.154 -3.462,0.231 V 7.617 c 0,0 3.924,-0.923 5.771,-2.539 C -1.616,3.462 0,0 0,0 Z"
             style="fill:none;stroke:#1a2e35;stroke-width:1;stroke-linecap:round;stroke-linejoin:round;stroke-miterlimit:10;stroke-dasharray:none;stroke-opacity:1"
             id="path152" />
        </g>
        <g
           id="g154"
           transform="translate(146.9126,368.6069)">
          <path
             d="m 0,0 c 0,-0.379 0.308,-0.687 0.687,-0.687 0.38,0 0.688,0.308 0.688,0.687 0,0.379 -0.308,0.687 -0.688,0.687 C 0.308,0.687 0,0.379 0,0"
             style="fill:#1a2e35;fill-opacity:1;fill-rule:nonzero;stroke:none"
             id="path156" />
        </g>
        <g
           id="g158"
           transform="translate(138.3281,361.5518)">
          <path
             d="m 0,0 c 0.416,-1.399 2.616,-1.981 4.916,-1.298 2.299,0.682 3.827,2.37 3.411,3.77 C 7.912,3.872 5.711,4.453 3.411,3.771 1.112,3.088 -0.416,1.4 0,0"
             style="fill:#ffffff;fill-opacity:1;fill-rule:nonzero;stroke:none"
             id="path160" />
        </g>
        <g
           id="g162"
           transform="translate(138.3281,361.5518)">
          <path
             d="m 0,0 c 0.416,-1.399 2.616,-1.981 4.916,-1.298 2.299,0.682 3.827,2.37 3.411,3.77 C 7.912,3.872 5.711,4.453 3.411,3.771 1.112,3.088 -0.416,1.4 0,0 Z"
             style="fill:none;stroke:#1a2e35;stroke-width:0.5;stroke-linecap:round;stroke-linejoin:round;stroke-miterlimit:10;stroke-dasharray:none;stroke-opacity:1"
             id="path164" />
        </g>
      </g>
    </g>
    <g
       id="g166">
      <g
         id="g168"
         clip-path="url(#clipPath172)">
        <g
           id="g174"
           transform="translate(122.8765,192.0332)">
          <path
             d="M 0,0 C 0,0 -9.126,14.514 -25.668,23.09 -42.209,31.667 -49.262,40.137 -40.678,39.632 -30.263,39.02 -6.676,30.748 4.045,1.647 8.671,-10.908 0,0 0,0"
             style="fill:#5ae4a7;fill-opacity:1;fill-rule:nonzero;stroke:#1a2e35;stroke-width:1;stroke-linecap:round;stroke-linejoin:round;stroke-miterlimit:10;stroke-dasharray:none;stroke-opacity:1"
             id="path176" />
        </g>
        <g
           id="g178"
           transform="translate(122.3267,195.8252)">
          <path
             d="M 0,0 C 0,0 -8.271,16.541 -23.893,24.506"
             style="fill:none;stroke:#1a2e35;stroke-width:1;stroke-linecap:round;stroke-linejoin:round;stroke-miterlimit:10;stroke-dasharray:none;stroke-opacity:1"
             id="path180" />
        </g>
        <g
           id="g182"
           transform="translate(132.8237,181.998)">
          <path
             d="M 0,0 C 0,0 -5.216,14.591 -2.074,31.137 1.069,47.682 -1.011,57.424 -5.446,51.042 -10.827,43.298 -18.123,21.917 -3.43,-1.954 2.909,-12.254 0,0 0,0"
             style="fill:#5ae4a7;fill-opacity:1;fill-rule:nonzero;stroke:#1a2e35;stroke-width:1;stroke-linecap:round;stroke-linejoin:round;stroke-miterlimit:10;stroke-dasharray:none;stroke-opacity:1"
             id="path184" />
        </g>
        <g
           id="g186"
           transform="translate(130.436,184.5068)">
          <path
             d="M 0,0 C 0,0 -7.136,15.115 -4.071,30.665"
             style="fill:none;stroke:#1a2e35;stroke-width:1;stroke-linecap:round;stroke-linejoin:round;stroke-miterlimit:10;stroke-dasharray:none;stroke-opacity:1"
             id="path188" />
        </g>
        <g
           id="g190"
           transform="translate(123.5527,199.3311)">
          <path
             d="M 0,0 C 0,0 -5.216,14.591 -2.074,31.137 1.069,47.682 -1.011,57.423 -5.446,51.041 -10.827,43.298 -18.123,21.917 -3.43,-1.955 2.909,-12.254 0,0 0,0"
             style="fill:#5ae4a7;fill-opacity:1;fill-rule:nonzero;stroke:#1a2e35;stroke-width:1;stroke-linecap:round;stroke-linejoin:round;stroke-miterlimit:10;stroke-dasharray:none;stroke-opacity:1"
             id="path192" />
        </g>
        <g
           id="g194"
           transform="translate(122.3267,195.8252)">
          <path
             d="M 0,0 C 0,0 -8.298,21.13 -5.232,36.68"
             style="fill:none;stroke:#1a2e35;stroke-width:1;stroke-linecap:round;stroke-linejoin:round;stroke-miterlimit:10;stroke-dasharray:none;stroke-opacity:1"
             id="path196" />
        </g>
        <g
           id="g198"
           transform="translate(331.1963,210.1104)">
          <path
             d="M 0,0 C 0,0 9.127,14.513 25.668,23.09 42.21,31.667 49.262,40.137 40.678,39.632 30.263,39.019 6.676,30.748 -4.046,1.647 -8.671,-10.908 0,0 0,0"
             style="fill:#5ae4a7;fill-opacity:1;fill-rule:nonzero;stroke:#1a2e35;stroke-width:1;stroke-linecap:round;stroke-linejoin:round;stroke-miterlimit:10;stroke-dasharray:none;stroke-opacity:1"
             id="path200" />
        </g>
        <g
           id="g202"
           transform="translate(331.7461,213.9023)">
          <path
             d="M 0,0 C 0,0 8.271,16.541 23.893,24.506"
             style="fill:none;stroke:#1a2e35;stroke-width:1;stroke-linecap:round;stroke-linejoin:round;stroke-miterlimit:10;stroke-dasharray:none;stroke-opacity:1"
             id="path204" />
        </g>
        <g
           id="g206"
           transform="translate(321.249,200.0752)">
          <path
             d="M 0,0 C 0,0 5.217,14.591 2.073,31.137 -1.069,47.682 1.011,57.424 5.446,51.042 10.827,43.298 18.122,21.917 3.43,-1.955 -2.909,-12.254 0,0 0,0"
             style="fill:#5ae4a7;fill-opacity:1;fill-rule:nonzero;stroke:#1a2e35;stroke-width:1;stroke-linecap:round;stroke-linejoin:round;stroke-miterlimit:10;stroke-dasharray:none;stroke-opacity:1"
             id="path208" />
        </g>
        <g
           id="g210"
           transform="translate(323.6367,202.583)">
          <path
             d="M 0,0 C 0,0 7.136,15.116 4.071,30.666"
             style="fill:none;stroke:#1a2e35;stroke-width:1;stroke-linecap:round;stroke-linejoin:round;stroke-miterlimit:10;stroke-dasharray:none;stroke-opacity:1"
             id="path212" />
        </g>
        <g
           id="g214"
           transform="translate(330.5195,217.4072)">
          <path
             d="M 0,0 C 0,0 5.217,14.592 2.074,31.137 -1.069,47.683 1.011,57.424 5.446,51.042 10.828,43.298 18.123,21.917 3.431,-1.954 -2.909,-12.253 0,0 0,0"
             style="fill:#5ae4a7;fill-opacity:1;fill-rule:nonzero;stroke:#1a2e35;stroke-width:1;stroke-linecap:round;stroke-linejoin:round;stroke-miterlimit:10;stroke-dasharray:none;stroke-opacity:1"
             id="path216" />
        </g>
        <g
           id="g218"
           transform="translate(331.7461,213.9023)">
          <path
             d="M 0,0 C 0,0 8.298,21.13 5.232,36.68"
             style="fill:none;stroke:#1a2e35;stroke-width:1;stroke-linecap:round;stroke-linejoin:round;stroke-miterlimit:10;stroke-dasharray:none;stroke-opacity:1"
             id="path220" />
        </g>
      </g>
    </g>
    <g
       id="g222"
       transform="translate(335.3613,261.856)">
      <path
         d="m 0,0 h -95.06 l -53.181,84.568 h 95.059 z"
         style="fill:#1a2e35;fill-opacity:1;fill-rule:nonzero;stroke:none"
         id="path224" />
    </g>
    <g
       id="g226"
       transform="translate(335.3613,261.856)">
      <path
         d="m 0,0 h -95.06 l -53.181,84.568 h 95.059 z"
         style="fill:none;stroke:#1a2e35;stroke-width:1;stroke-linecap:round;stroke-linejoin:round;stroke-miterlimit:10;stroke-dasharray:none;stroke-opacity:1"
         id="path228" />
    </g>
    <path
       d="m 227.074,178.699 h -97.43 v 86.063 h 97.43 z"
       style="fill:#c8c8c8;fill-opacity:1;fill-rule:nonzero;stroke:#1a2e35;stroke-width:1;stroke-linecap:round;stroke-linejoin:round;stroke-miterlimit:10;stroke-dasharray:none;stroke-opacity:1"
       id="path230" />
    <g
       id="g232"
       transform="translate(324.5039,178.6992)">
      <path
         d="M 0,0 H -97.43 V 86.063 L -47.902,164.819 0,86.063 Z"
         style="fill:#ffffff;fill-opacity:1;fill-rule:nonzero;stroke:none"
         id="path234" />
    </g>
    <g
       id="g236"
       transform="translate(324.5039,178.6992)">
      <path
         d="M 0,0 H -97.43 V 86.063 L -47.902,164.819 0,86.063 Z"
         style="fill:none;stroke:#1a2e35;stroke-width:1;stroke-linecap:round;stroke-linejoin:round;stroke-miterlimit:10;stroke-dasharray:none;stroke-opacity:1"
         id="path238" />
    </g>
    <path
       d="m 248.184,220.106 h -9.743 v 29.229 h 9.743 z"
       style="fill:#c8c8c8;fill-opacity:1;fill-rule:nonzero;stroke:#1a2e35;stroke-width:1;stroke-linecap:round;stroke-linejoin:round;stroke-miterlimit:10;stroke-dasharray:none;stroke-opacity:1"
       id="path240" />
    <path
       d="m 257.927,220.106 h -9.743 v 29.229 h 9.743 z"
       style="fill:#1a2e35;fill-opacity:1;fill-rule:nonzero;stroke:#1a2e35;stroke-width:1;stroke-linecap:round;stroke-linejoin:round;stroke-miterlimit:10;stroke-dasharray:none;stroke-opacity:1"
       id="path242" />
    <path
       d="m 267.67,220.106 h -9.743 v 29.229 h 9.743 z"
       style="fill:#c8c8c8;fill-opacity:1;fill-rule:nonzero;stroke:#1a2e35;stroke-width:1;stroke-linecap:round;stroke-linejoin:round;stroke-miterlimit:10;stroke-dasharray:none;stroke-opacity:1"
       id="path244" />
    <path
       d="m 203.529,220.106 h -8.119 v 29.229 h 8.119 z"
       style="fill:#929292;fill-opacity:1;fill-rule:nonzero;stroke:#1a2e35;stroke-width:1;stroke-linecap:round;stroke-linejoin:round;stroke-miterlimit:10;stroke-dasharray:none;stroke-opacity:1"
       id="path246" />
    <path
       d="m 211.648,220.106 h -8.119 v 29.229 h 8.119 z"
       style="fill:#1a2e35;fill-opacity:1;fill-rule:nonzero;stroke:#1a2e35;stroke-width:1;stroke-linecap:round;stroke-linejoin:round;stroke-miterlimit:10;stroke-dasharray:none;stroke-opacity:1"
       id="path248" />
    <path
       d="m 219.767,220.106 h -8.119 v 29.229 h 8.119 z"
       style="fill:#929292;fill-opacity:1;fill-rule:nonzero;stroke:#1a2e35;stroke-width:1;stroke-linecap:round;stroke-linejoin:round;stroke-miterlimit:10;stroke-dasharray:none;stroke-opacity:1"
       id="path250" />
    <path
       d="m 143.447,220.106 h -8.119 v 29.229 h 8.119 z"
       style="fill:#929292;fill-opacity:1;fill-rule:nonzero;stroke:#1a2e35;stroke-width:1;stroke-linecap:round;stroke-linejoin:round;stroke-miterlimit:10;stroke-dasharray:none;stroke-opacity:1"
       id="path252" />
    <path
       d="m 151.566,220.106 h -8.12 v 29.229 h 8.12 z"
       style="fill:#1a2e35;fill-opacity:1;fill-rule:nonzero;stroke:#1a2e35;stroke-width:1;stroke-linecap:round;stroke-linejoin:round;stroke-miterlimit:10;stroke-dasharray:none;stroke-opacity:1"
       id="path254" />
    <path
       d="m 159.685,220.106 h -8.119 v 29.229 h 8.119 z"
       style="fill:#929292;fill-opacity:1;fill-rule:nonzero;stroke:#1a2e35;stroke-width:1;stroke-linecap:round;stroke-linejoin:round;stroke-miterlimit:10;stroke-dasharray:none;stroke-opacity:1"
       id="path256" />
    <path
       d="m 297.711,220.106 h -9.743 v 29.229 h 9.743 z"
       style="fill:#c8c8c8;fill-opacity:1;fill-rule:nonzero;stroke:#1a2e35;stroke-width:1;stroke-linecap:round;stroke-linejoin:round;stroke-miterlimit:10;stroke-dasharray:none;stroke-opacity:1"
       id="path258" />
    <path
       d="m 307.454,220.106 h -9.743 v 29.229 h 9.743 z"
       style="fill:#1a2e35;fill-opacity:1;fill-rule:nonzero;stroke:#1a2e35;stroke-width:1;stroke-linecap:round;stroke-linejoin:round;stroke-miterlimit:10;stroke-dasharray:none;stroke-opacity:1"
       id="path260" />
    <path
       d="m 317.197,220.106 h -9.743 v 29.229 h 9.743 z"
       style="fill:#c8c8c8;fill-opacity:1;fill-rule:nonzero;stroke:#1a2e35;stroke-width:1;stroke-linecap:round;stroke-linejoin:round;stroke-miterlimit:10;stroke-dasharray:none;stroke-opacity:1"
       id="path262" />
    <path
       d="m 274.978,279.376 h -6.496 v 17.862 h 6.496 z"
       style="fill:#c8c8c8;fill-opacity:1;fill-rule:nonzero;stroke:#1a2e35;stroke-width:1;stroke-linecap:round;stroke-linejoin:round;stroke-miterlimit:10;stroke-dasharray:none;stroke-opacity:1"
       id="path264" />
    <path
       d="m 281.473,279.376 h -6.495 v 17.862 h 6.495 z"
       style="fill:#1a2e35;fill-opacity:1;fill-rule:nonzero;stroke:#1a2e35;stroke-width:1;stroke-linecap:round;stroke-linejoin:round;stroke-miterlimit:10;stroke-dasharray:none;stroke-opacity:1"
       id="path266" />
    <path
       d="m 287.968,279.376 h -6.495 v 17.862 h 6.495 z"
       style="fill:#c8c8c8;fill-opacity:1;fill-rule:nonzero;stroke:#1a2e35;stroke-width:1;stroke-linecap:round;stroke-linejoin:round;stroke-miterlimit:10;stroke-dasharray:none;stroke-opacity:1"
       id="path268" />
    <g
       id="g270"
       transform="translate(124.2217,261.856)">
      <path
         d="m 0,0 h 104.62 l 53.182,84.568 H 53.182 Z"
         style="fill:#5ae4a7;fill-opacity:1;fill-rule:nonzero;stroke:none"
         id="path272" />
    </g>
    <g
       id="g274"
       transform="translate(124.2217,261.856)">
      <path
         d="m 0,0 h 104.62 l 53.182,84.568 H 53.182 Z"
         style="fill:none;stroke:#1a2e35;stroke-width:1;stroke-linecap:round;stroke-linejoin:round;stroke-miterlimit:10;stroke-dasharray:none;stroke-opacity:1"
         id="path276" />
    </g>
    <path
       d="m 205.906,308.225 h -41.314 v -27.34 h 41.314 z"
       style="fill:#c8c8c8;fill-opacity:1;fill-rule:nonzero;stroke:#1a2e35;stroke-width:1;stroke-linecap:round;stroke-linejoin:round;stroke-miterlimit:10;stroke-dasharray:none;stroke-opacity:1"
       id="path278" />
    <g
       id="g280"
       transform="translate(205.9062,308.2251)">
      <path
         d="M 0,0 28.549,19.607 0,-27.34 Z"
         style="fill:#ffffff;fill-opacity:1;fill-rule:nonzero;stroke:none"
         id="path282" />
    </g>
    <g
       id="g284"
       transform="translate(205.9062,308.2251)">
      <path
         d="M 0,0 28.549,19.607 0,-27.34 Z"
         style="fill:none;stroke:#1a2e35;stroke-width:1;stroke-linecap:round;stroke-linejoin:round;stroke-miterlimit:10;stroke-dasharray:none;stroke-opacity:1"
         id="path286" />
    </g>
    <g
       id="g288"
       transform="translate(161.2812,307.2959)">
      <path
         d="M 0,0 H 43.272 L 73.174,20.536 H 29.909 Z"
         style="fill:#5ae4a7;fill-opacity:1;fill-rule:nonzero;stroke:none"
         id="path290" />
    </g>
    <g
       id="g292"
       transform="translate(161.2812,307.2959)">
      <path
         d="M 0,0 H 43.272 L 73.174,20.536 H 29.909 Z"
         style="fill:none;stroke:#1a2e35;stroke-width:1;stroke-linecap:round;stroke-linejoin:round;stroke-miterlimit:10;stroke-dasharray:none;stroke-opacity:1"
         id="path294" />
    </g>
    <path
       d="m 181.203,284.558 h -6.496 v 17.862 h 6.496 z"
       style="fill:#929292;fill-opacity:1;fill-rule:nonzero;stroke:#1a2e35;stroke-width:1;stroke-linecap:round;stroke-linejoin:round;stroke-miterlimit:10;stroke-dasharray:none;stroke-opacity:1"
       id="path296" />
    <path
       d="m 187.698,284.558 h -6.495 v 17.862 h 6.495 z"
       style="fill:#1a2e35;fill-opacity:1;fill-rule:nonzero;stroke:#1a2e35;stroke-width:1;stroke-linecap:round;stroke-linejoin:round;stroke-miterlimit:10;stroke-dasharray:none;stroke-opacity:1"
       id="path298" />
    <path
       d="m 194.193,284.558 h -6.495 v 17.862 h 6.495 z"
       style="fill:#929292;fill-opacity:1;fill-rule:nonzero;stroke:#1a2e35;stroke-width:1;stroke-linecap:round;stroke-linejoin:round;stroke-miterlimit:10;stroke-dasharray:none;stroke-opacity:1"
       id="path300" />
    <g
       id="g302"
       transform="translate(256.8359,359.25)">
      <path
         d="M 0,0 H -3.633 V -26.535 L 0,-20.668 Z"
         style="fill:#ffffff;fill-opacity:1;fill-rule:nonzero;stroke:none"
         id="path304" />
    </g>
    <g
       id="g306"
       transform="translate(256.8359,359.25)">
      <path
         d="M 0,0 H -3.633 V -26.535 L 0,-20.668 Z"
         style="fill:none;stroke:#1a2e35;stroke-width:1;stroke-linecap:round;stroke-linejoin:round;stroke-miterlimit:10;stroke-dasharray:none;stroke-opacity:1"
         id="path308" />
    </g>
    <path
       d="M 253.37,359.25 H 242.633 V 332.715 H 253.37 Z"
       style="fill:#c8c8c8;fill-opacity:1;fill-rule:nonzero;stroke:#1a2e35;stroke-width:1;stroke-linecap:round;stroke-linejoin:round;stroke-miterlimit:10;stroke-dasharray:none;stroke-opacity:1"
       id="path310" />
    <path
       d="m 190.863,178.699 h -25.007 v 65.723 h 25.007 z"
       style="fill:#1a2e35;fill-opacity:1;fill-rule:nonzero;stroke:#1a2e35;stroke-width:1;stroke-linecap:round;stroke-linejoin:round;stroke-miterlimit:10;stroke-dasharray:none;stroke-opacity:1"
       id="path312" />
    <g
       id="g314">
      <g
         id="g316"
         clip-path="url(#clipPath320)">
        <g
           id="g322"
           transform="translate(189.543,211.6445)">
          <path
             d="m 0,0 c 0,1.223 -0.991,2.213 -2.213,2.213 -1.223,0 -2.214,-0.99 -2.214,-2.213 0,-1.223 0.991,-2.213 2.214,-2.213 C -0.991,-2.213 0,-1.223 0,0"
             style="fill:#ffffff;fill-opacity:1;fill-rule:nonzero;stroke:none"
             id="path324" />
        </g>
        <g
           id="g326"
           transform="translate(189.543,211.6445)">
          <path
             d="m 0,0 c 0,1.223 -0.991,2.213 -2.213,2.213 -1.223,0 -2.214,-0.99 -2.214,-2.213 0,-1.223 0.991,-2.213 2.214,-2.213 C -0.991,-2.213 0,-1.223 0,0 Z"
             style="fill:none;stroke:#1a2e35;stroke-width:1;stroke-linecap:round;stroke-linejoin:round;stroke-miterlimit:10;stroke-dasharray:none;stroke-opacity:1"
             id="path328" />
        </g>
      </g>
    </g>
    <g
       id="g330">
      <g
         id="g332"
         clip-path="url(#clipPath336)">
        <g
           id="g338"
           transform="translate(124.4868,192.4473)">
          <path
             d="m 0,0 c 0,0 -20.943,11.461 -40.5,13.589 -19.557,2.129 -30.872,-6.983 -30.775,-10.94 0.096,-3.956 13.67,-4.252 16.245,-4.913 2.575,-0.661 18.304,3.683 41.516,-1.832 23.212,-5.515 26.184,-6.649 26.184,-6.649 z"
             style="fill:#ffffff;fill-opacity:1;fill-rule:nonzero;stroke:none"
             id="path340" />
        </g>
        <g
           id="g342"
           transform="translate(124.4868,192.4473)">
          <path
             d="m 0,0 c 0,0 -20.943,11.461 -40.5,13.589 -19.557,2.129 -30.872,-6.983 -30.775,-10.94 0.096,-3.956 13.67,-4.252 16.245,-4.913 2.575,-0.661 18.304,3.683 41.516,-1.832 23.212,-5.515 26.184,-6.649 26.184,-6.649 z"
             style="fill:none;stroke:#1a2e35;stroke-width:1;stroke-linecap:round;stroke-linejoin:round;stroke-miterlimit:10;stroke-dasharray:none;stroke-opacity:1"
             id="path344" />
        </g>
        <g
           id="g346"
           transform="translate(115.7266,192.709)">
          <path
             d="m 0,0 c 0,0 -21.852,9.615 -41.519,10.052 -19.668,0.437 -30.157,-9.615 -29.719,-13.549 0.437,-3.933 13.985,-3.059 16.607,-3.496 2.623,-0.437 17.919,5.245 41.52,1.748 23.6,-3.496 26.66,-4.37 26.66,-4.37 z"
             style="fill:#ffffff;fill-opacity:1;fill-rule:nonzero;stroke:none"
             id="path348" />
        </g>
        <g
           id="g350"
           transform="translate(115.7266,192.709)">
          <path
             d="m 0,0 c 0,0 -21.852,9.615 -41.519,10.052 -19.668,0.437 -30.157,-9.615 -29.719,-13.549 0.437,-3.933 13.985,-3.059 16.607,-3.496 2.623,-0.437 17.919,5.245 41.52,1.748 23.6,-3.496 26.66,-4.37 26.66,-4.37 z"
             style="fill:none;stroke:#1a2e35;stroke-width:1;stroke-linecap:round;stroke-linejoin:round;stroke-miterlimit:10;stroke-dasharray:none;stroke-opacity:1"
             id="path352" />
        </g>
        <g
           id="g354"
           transform="translate(395.0654,200.7979)">
          <path
             d="m 0,0 -30.345,8.218 c 0,0 -21.494,17.069 -47.413,15.173 -25.92,-1.897 -49.31,-12.012 -56.896,-17.702 -7.587,-5.689 -17.07,-11.378 -18.966,-12.643 -1.897,-1.265 -27.816,5.689 -41.724,0 -13.908,-5.69 -24.656,-17.069 -24.656,-17.069 0,0 -58.792,17.701 -73.333,20.23 -14.54,2.528 -31.609,1.264 -43.62,-7.587 -12.012,-8.849 -9.483,-14.54 -3.161,-15.804 6.322,-1.264 7.586,5.057 42.356,-4.425 34.77,-9.483 77.127,-34.138 94.196,-43.62 17.068,-9.484 45.517,-22.759 64.482,-17.07 18.966,5.69 70.805,25.287 82.816,25.287 12.011,0 50.575,-2.528 50.575,-2.528 z"
             style="fill:#ffffff;fill-opacity:1;fill-rule:nonzero;stroke:none"
             id="path356" />
        </g>
        <g
           id="g358"
           transform="translate(395.0654,200.7979)">
          <path
             d="m 0,0 -30.345,8.218 c 0,0 -21.494,17.069 -47.413,15.173 -25.92,-1.897 -49.31,-12.012 -56.896,-17.702 -7.587,-5.689 -17.07,-11.378 -18.966,-12.643 -1.897,-1.265 -27.816,5.689 -41.724,0 -13.908,-5.69 -24.656,-17.069 -24.656,-17.069 0,0 -58.792,17.701 -73.333,20.23 -14.54,2.528 -31.609,1.264 -43.62,-7.587 -12.012,-8.849 -9.483,-14.54 -3.161,-15.804 6.322,-1.264 7.586,5.057 42.356,-4.425 34.77,-9.483 77.127,-34.138 94.196,-43.62 17.068,-9.484 45.517,-22.759 64.482,-17.07 18.966,5.69 70.805,25.287 82.816,25.287 12.011,0 50.575,-2.528 50.575,-2.528 z"
             style="fill:none;stroke:#1a2e35;stroke-width:1;stroke-linecap:round;stroke-linejoin:round;stroke-miterlimit:10;stroke-dasharray:none;stroke-opacity:1"
             id="path360" />
        </g>
        <g
           id="g362"
           transform="translate(378.5625,158.9766)">
          <path
             d="m 0,0 -26.079,-25.036 36.892,-2.683 z"
             style="fill:#1a2e35;fill-opacity:1;fill-rule:nonzero;stroke:none"
             id="path364" />
        </g>
        <g
           id="g366"
           transform="translate(378.5625,158.9766)">
          <path
             d="m 0,0 -26.079,-25.036 36.892,-2.683 z"
             style="fill:none;stroke:#1a2e35;stroke-width:1;stroke-linecap:round;stroke-linejoin:round;stroke-miterlimit:10;stroke-dasharray:none;stroke-opacity:1"
             id="path368" />
        </g>
        <g
           id="g370"
           transform="translate(175.0659,176.7744)">
          <path
             d="m 0,0 c 0,0 -5.872,-7.717 -3.397,-17.718 1.528,-6.178 8.741,-4.807 21.852,-2.185 13.112,2.622 0.875,4.37 31.468,4.807 30.593,0.437 63.371,1.311 65.119,1.311"
             style="fill:none;stroke:#1a2e35;stroke-width:1;stroke-linecap:round;stroke-linejoin:round;stroke-miterlimit:10;stroke-dasharray:none;stroke-opacity:1"
             id="path372" />
        </g>
        <g
           id="g374"
           transform="translate(174.8452,155.333)">
          <path
             d="m 0,0 c 0,0 0.583,3.992 4.844,6.459 0,0 7.266,3.768 11.841,3.768 4.575,0 8.342,-4.844 6.997,-6.459"
             style="fill:none;stroke:#1a2e35;stroke-width:1;stroke-linecap:round;stroke-linejoin:round;stroke-miterlimit:10;stroke-dasharray:none;stroke-opacity:1"
             id="path376" />
        </g>
        <g
           id="g378"
           transform="translate(214.1353,162.8682)">
          <path
             d="M 0,0 V 5.383"
             style="fill:none;stroke:#1a2e35;stroke-width:1;stroke-linecap:round;stroke-linejoin:round;stroke-miterlimit:10;stroke-dasharray:none;stroke-opacity:1"
             id="path380" />
        </g>
        <g
           id="g382"
           transform="translate(216.8267,173.3633)">
          <path
             d="M 0,0 C 0,0 0.807,-2.96 0.269,-7.535"
             style="fill:none;stroke:#1a2e35;stroke-width:1;stroke-linecap:round;stroke-linejoin:round;stroke-miterlimit:10;stroke-dasharray:none;stroke-opacity:1"
             id="path384" />
        </g>
        <g
           id="g386"
           transform="translate(421.6611,102.0996)">
          <path
             d="m 0,0 h -40.773 c -2.48,0 -4.489,2.01 -4.489,4.488 v 102.296 c 0,2.48 2.009,4.489 4.489,4.489 l 40.773,0 z"
             style="fill:#5ae4a7;fill-opacity:1;fill-rule:nonzero;stroke:none"
             id="path388" />
        </g>
        <g
           id="g390"
           transform="translate(421.6611,102.0996)">
          <path
             d="m 0,0 h -40.773 c -2.48,0 -4.489,2.01 -4.489,4.488 v 102.296 c 0,2.48 2.009,4.489 4.489,4.489 l 40.773,0 z"
             style="fill:none;stroke:#1a2e35;stroke-width:1;stroke-linecap:round;stroke-linejoin:round;stroke-miterlimit:10;stroke-dasharray:none;stroke-opacity:1"
             id="path392" />
        </g>
        <g
           id="g394"
           transform="translate(494.1875,93.4072)">
          <path
             d="m 0,0 h -72.188 c -1.886,0 -3.415,1.528 -3.415,3.414 v 118.85 c 0,1.885 1.529,3.414 3.415,3.414 H 0 Z"
             style="fill:#5ae4a7;fill-opacity:1;fill-rule:nonzero;stroke:none"
             id="path396" />
        </g>
        <g
           id="g398"
           transform="translate(494.1875,93.4072)">
          <path
             d="m 0,0 h -72.188 c -1.886,0 -3.415,1.528 -3.415,3.414 v 118.85 c 0,1.885 1.529,3.414 3.415,3.414 H 0 Z"
             style="fill:none;stroke:#1a2e35;stroke-width:1;stroke-linecap:round;stroke-linejoin:round;stroke-miterlimit:10;stroke-dasharray:none;stroke-opacity:1"
             id="path400" />
        </g>
        <g
           id="g402"
           transform="translate(382.6738,203.1777)">
          <path
             d="M 0,0 H 33.649"
             style="fill:#5ae4a7;fill-opacity:1;fill-rule:nonzero;stroke:#1a2e35;stroke-width:1;stroke-linecap:round;stroke-linejoin:round;stroke-miterlimit:10;stroke-dasharray:none;stroke-opacity:1"
             id="path404" />
        </g>
        <g
           id="g406"
           transform="translate(415.8662,189.9736)">
          <path
             d="M 0,0 H -34.21"
             style="fill:#5ae4a7;fill-opacity:1;fill-rule:nonzero;stroke:#1a2e35;stroke-width:1;stroke-linecap:round;stroke-linejoin:round;stroke-miterlimit:10;stroke-dasharray:none;stroke-opacity:1"
             id="path408" />
        </g>
        <g
           id="g410"
           transform="translate(380.4561,165.9668)">
          <path
             d="M 0,0 H 23.407"
             style="fill:#5ae4a7;fill-opacity:1;fill-rule:nonzero;stroke:#1a2e35;stroke-width:1;stroke-linecap:round;stroke-linejoin:round;stroke-miterlimit:10;stroke-dasharray:none;stroke-opacity:1"
             id="path412" />
        </g>
        <g
           id="g414"
           transform="translate(408.0645,165.9668)">
          <path
             d="M 0,0 H 7.802"
             style="fill:#5ae4a7;fill-opacity:1;fill-rule:nonzero;stroke:#1a2e35;stroke-width:1;stroke-linecap:round;stroke-linejoin:round;stroke-miterlimit:10;stroke-dasharray:none;stroke-opacity:1"
             id="path416" />
        </g>
      </g>
    </g>
  </g>
</svg>
